<svg width="16" height="15" viewBox="0 0 16 15" fill="none" xmlns="http://www.w3.org/2000/svg">
<path d="M7.37896 0.877273C7.67896 -0.0437266 8.98196 -0.0437266 9.28096 0.877273L10.351 4.16927C10.4163 4.36976 10.5434 4.54445 10.714 4.66838C10.8847 4.7923 11.0901 4.85912 11.301 4.85927H14.763C15.732 4.85927 16.134 6.09927 15.351 6.66927L12.551 8.70327C12.38 8.8273 12.2527 9.00228 12.1873 9.20313C12.1219 9.40397 12.1218 9.62036 12.187 9.82127L13.257 13.1133C13.557 14.0343 12.502 14.8013 11.717 14.2313L8.91696 12.1973C8.74617 12.0733 8.54052 12.0065 8.32946 12.0065C8.1184 12.0065 7.91275 12.0733 7.74196 12.1973L4.94196 14.2313C4.15796 14.8013 3.10396 14.0343 3.40296 13.1133L4.47296 9.82127C4.53814 9.62036 4.53802 9.40397 4.47263 9.20313C4.40724 9.00228 4.27993 8.8273 4.10896 8.70327L1.30996 6.67027C0.526961 6.10027 0.929961 4.86027 1.89796 4.86027H5.35896C5.57001 4.86033 5.77566 4.79361 5.94648 4.66967C6.11731 4.54573 6.24454 4.37092 6.30996 4.17027L7.37996 0.878273L7.37896 0.877273Z" fill="#059669"/>
</svg>
