<svg width="48" height="49" viewBox="0 0 48 49" fill="none" xmlns="http://www.w3.org/2000/svg">
<path d="M16 20.9502H16.02M24 20.9502H24.02M32 20.9502H32.02M18 32.9502H10C8.93913 32.9502 7.92172 32.5288 7.17157 31.7786C6.42143 31.0285 6 30.0111 6 28.9502V12.9502C6 11.8893 6.42143 10.8719 7.17157 10.1218C7.92172 9.37162 8.93913 8.9502 10 8.9502H38C39.0609 8.9502 40.0783 9.37162 40.8284 10.1218C41.5786 10.8719 42 11.8893 42 12.9502V28.9502C42 30.0111 41.5786 31.0285 40.8284 31.7786C40.0783 32.5288 39.0609 32.9502 38 32.9502H28L18 42.9502V32.9502Z" stroke="#5B21B6" stroke-width="4" stroke-linecap="round" stroke-linejoin="round"/>
</svg>
