<svg width="96" height="97" viewBox="0 0 96 97" fill="none" xmlns="http://www.w3.org/2000/svg">
<path d="M36 20.9502H28C25.8783 20.9502 23.8434 21.793 22.3431 23.2933C20.8429 24.7936 20 26.8285 20 28.9502V76.9502C20 79.0719 20.8429 81.1068 22.3431 82.607C23.8434 84.1073 25.8783 84.9502 28 84.9502H68C70.1217 84.9502 72.1566 84.1073 73.6569 82.607C75.1571 81.1068 76 79.0719 76 76.9502V28.9502C76 26.8285 75.1571 24.7936 73.6569 23.2933C72.1566 21.793 70.1217 20.9502 68 20.9502H60M36 20.9502C36 23.0719 36.8429 25.1068 38.3431 26.607C39.8434 28.1073 41.8783 28.9502 44 28.9502H52C54.1217 28.9502 56.1566 28.1073 57.6569 26.607C59.1571 25.1068 60 23.0719 60 20.9502M36 20.9502C36 18.8285 36.8429 16.7936 38.3431 15.2933C39.8434 13.793 41.8783 12.9502 44 12.9502H52C54.1217 12.9502 56.1566 13.793 57.6569 15.2933C59.1571 16.7936 60 18.8285 60 20.9502M48 48.9502H60M48 64.9502H60M36 48.9502H36.04M36 64.9502H36.04" stroke="white" stroke-width="8" stroke-linecap="round" stroke-linejoin="round"/>
</svg>
