<svg width="20" height="21" viewBox="0 0 20 21" fill="none" xmlns="http://www.w3.org/2000/svg">
<path d="M14 10.4502C14 9.38933 13.5786 8.37192 12.8284 7.62177C12.0783 6.87163 11.0609 6.4502 10 6.4502C8.93913 6.4502 7.92172 6.87163 7.17157 7.62177C6.42143 8.37192 6 9.38933 6 10.4502C6 11.5111 6.42143 12.5285 7.17157 13.2786C7.92172 14.0288 8.93913 14.4502 10 14.4502C11.0609 14.4502 12.0783 14.0288 12.8284 13.2786C13.5786 12.5285 14 11.5111 14 10.4502ZM14 10.4502V11.9502C14 12.6132 14.2634 13.2491 14.7322 13.718C15.2011 14.1868 15.837 14.4502 16.5 14.4502C17.163 14.4502 17.7989 14.1868 18.2678 13.718C18.7366 13.2491 19 12.6132 19 11.9502V10.4502C19 8.67017 18.4722 6.93011 17.4832 5.45007C16.4943 3.97002 15.0887 2.81647 13.4442 2.13528C11.7996 1.45409 9.99002 1.27586 8.24419 1.62313C6.49836 1.9704 4.89471 2.82757 3.63604 4.08624C2.37737 5.34491 1.5202 6.94856 1.17293 8.69439C0.825666 10.4402 1.0039 12.2498 1.68508 13.8944C2.36627 15.5389 3.51983 16.9445 4.99987 17.9334C6.47991 18.9224 8.21997 19.4502 10 19.4502C11.5802 19.4518 13.1327 19.0363 14.5 18.2442" stroke="#D1D5DB" stroke-width="2" stroke-linecap="round" stroke-linejoin="round"/>
</svg>
